# xmcd
#
# Track frame offsets: 
#        150
#        15328
#        27202
#        36572
#        46552
#        59134
#        72281
#        82852
#        95046
#        103660
#        115936
#        128668
#        137292
#        147596
#        162013
#        177364
#        187979
#        201254
#        211054
#        224188
#        237904
#        254959
#        271102
#        286126
#
# Disc length: 3955 seconds
#
# Revision: 1
# Processed by: cddbd v1.5.2PL0 Copyright (c) Steve Scherf et al.
# Submitted via: ExactAudioCopy v1.1
#
DISCID=630f7118
DTITLE=Shirley Bassey - Shirley Stops The Shows
DYEAR=1965
DGENRE=Pop
TTITLE0=Everything's Coming Up Roses
TTITLE1=The Sweetest Sounds
TTITLE2=He Loves Me
TTITLE3=I Believe In You
TTITLE4=People
TTITLE5=The Lady Is A Tramp
TTITLE6=Once In A Lifetime
TTITLE7=Something Wonderful
TTITLE8=A Lot Of Livin' To Do
TTITLE9=If Ever I Would Leave You
TTITLE10=Somewhere
TTITLE11=I Could Have Danced All Night
TTITLE12=Come Back To Me
TTITLE13=I'm I Fool To Want You
TTITLE14=A House Is Not A Home
TTITLE15=If Love Were All
TTITLE16=Moon River
TTITLE17=Don't Rain On My Parade
TTITLE18=Something's Coming
TTITLE19=Day's Of Wine And Roses
TTITLE20=Call Me
TTITLE21=Charade
TTITLE22=I Wish You Love
TTITLE23=One Of Those Songs
EXTD=
EXTT0=
EXTT1=
EXTT2=
EXTT3=
EXTT4=
EXTT5=
EXTT6=
EXTT7=
EXTT8=
EXTT9=
EXTT10=
EXTT11=
EXTT12=
EXTT13=
EXTT14=
EXTT15=
EXTT16=
EXTT17=
EXTT18=
EXTT19=
EXTT20=
EXTT21=
EXTT22=
EXTT23=
PLAYORDER=
